<svg xmlns="http://www.w3.org/2000/svg" width="60.295" height="60.304" viewBox="0 0 60.295 60.304">
  <g id="Group_18792" data-name="Group 18792" transform="translate(-232.758 -369.749)">
    <path id="Path_39751" data-name="Path 39751" d="M293.053,425.687c-.113.371-.206.749-.341,1.112a4.9,4.9,0,0,1-4.5,3.231q-9.214.039-18.428,0a4.979,4.979,0,0,1-4.865-5.105c-.013-5.416,0-10.833,0-16.25v-.717h-5.443c.084.213.151.4.232.584,1,2.257,1.994,4.517,3.007,6.768a1.085,1.085,0,0,1-.137,1.4c-.478.436-.959.274-1.453-.024q-7.031-4.23-14.077-8.435a2.278,2.278,0,0,0-1.092-.308c-2.63-.026-5.26-.009-7.889-.015a5.017,5.017,0,0,1-5.3-5.324q0-13.777,0-27.554a5.025,5.025,0,0,1,5.276-5.3q15.837,0,31.675,0a4.993,4.993,0,0,1,5.241,5.2q.028,6.123-.007,12.246c0,.518.133.661.655.658,3.984-.022,7.968-.013,11.952-.012,2.965,0,4.669,1.316,5.432,4.187.009.034.046.061.069.091Zm-33.407-12.247c-.125-.309-.19-.485-.265-.655-.722-1.63-1.382-3.292-2.188-4.88-.621-1.223-.2-2.038,1.335-2.01,3.727.068,7.457.026,11.185.021a3.02,3.02,0,0,0,3.23-3.241q.007-13.835,0-27.67a3.011,3.011,0,0,0-3.278-3.248q-15.807,0-31.614,0a3.042,3.042,0,0,0-3.285,3.313q0,13.776,0,27.552a3.026,3.026,0,0,0,3.293,3.295c2.728,0,5.456-.021,8.183.02a3.258,3.258,0,0,1,1.538.419c3.347,1.966,6.667,3.977,10,5.973C258.356,412.677,258.94,413.021,259.646,413.441Zm15.344-12.632a9.049,9.049,0,1,1,6.3,16.872,8.635,8.635,0,0,1-7.061-1.07,8.964,8.964,0,0,1-4.259-8.649H266.96V421.98H291V395.917H274.989Zm3.857,15.164a7,7,0,0,0,7.133-7.487,6.631,6.631,0,0,0-3.775-5.772,6.713,6.713,0,0,0-6.888.249.936.936,0,0,0-.385.581,4.88,4.88,0,0,1-2.281,3.539,1.335,1.335,0,0,0-.67,1.187A7.047,7.047,0,0,0,278.846,415.973Zm-11.864,8.069c-.351,2.454.958,4,3.344,4q8.769,0,17.539,0a3.113,3.113,0,0,0,3.092-3.995Zm8.005-30.209H291a3.253,3.253,0,0,0-3.544-4c-3.917.1-7.839.028-11.758.028h-.714Z" fill="#fb6107"/>
    <path id="Path_39757" data-name="Path 39757" d="M298.881,416.7q-5.356,0-10.712,0c-1.012,0-1.331-.331-1.314-1.345a10.005,10.005,0,0,1,9.65-9.684,34.122,34.122,0,0,1,6.45.238,9.9,9.9,0,0,1,8,9.6c0,.818-.379,1.19-1.248,1.191Q304.3,416.7,298.881,416.7Zm-9.919-2.043h19.892a7.929,7.929,0,0,0-6.122-6.771,26.678,26.678,0,0,0-6.623-.161,7.045,7.045,0,0,0-1.887.4A7.925,7.925,0,0,0,288.963,414.658Z" transform="translate(-45.038 -29.871)" fill="#fb6107"/>
    <path id="Path_39758" data-name="Path 39758" d="M298.93,531.726q5.3,0,10.595,0c1.186,0,1.524.373,1.4,1.534a4.962,4.962,0,0,1-5.033,4.5q-6.974.067-13.95,0a4.988,4.988,0,0,1-5.077-4.769c-.023-.9.332-1.26,1.289-1.261Q293.544,531.721,298.93,531.726Zm9.838,2.054H289.086a2.908,2.908,0,0,0,.159.413,3.1,3.1,0,0,0,2.895,1.568c4.513-.01,9.027,0,13.54-.006a4.248,4.248,0,0,0,.82-.064A2.99,2.99,0,0,0,308.767,533.779Z" transform="translate(-45.049 -134.851)" fill="#fb6107"/>
    <path id="Path_39759" data-name="Path 39759" d="M286.958,503.532v-1.758a2.817,2.817,0,0,1,2.014.658c.337.267.639.579.958.868a1.366,1.366,0,0,0,2.039-.01c.2-.185.394-.383.6-.568a3.375,3.375,0,0,1,4.772-.016c.232.211.446.442.682.649a1.344,1.344,0,0,0,1.909,0c.281-.244.538-.516.819-.76a3.362,3.362,0,0,1,4.508,0c.222.193.427.4.641.606a1.43,1.43,0,0,0,2.261-.006,10.521,10.521,0,0,1,1.017-.887,2.658,2.658,0,0,1,1.846-.533v1.763a13.266,13.266,0,0,0-1.309.961c-1.79,1.691-3.591,1.7-5.374-.011-1.084-1.039-1.587-1.038-2.682.005-1.8,1.71-3.555,1.706-5.363-.014-1.084-1.031-1.586-1.027-2.684.022-1.768,1.689-3.521,1.684-5.324.014A15.792,15.792,0,0,0,286.958,503.532Z" transform="translate(-45.124 -109.876)" fill="#fb6107"/>
    <path id="Path_39760" data-name="Path 39760" d="M311.156,483.977v1.936H287.124v-1.936Z" transform="translate(-45.262 -95.099)" fill="#fb6107"/>
    <path id="Path_39761" data-name="Path 39761" d="M486.532,586l1.45-1.464,1.139,1.359,4.352-4.366,1.461,1.48-2.678,2.675c-.734.734-1.461,1.476-2.206,2.2a1.015,1.015,0,0,1-1.6,0C487.82,587.268,487.2,586.648,486.532,586Z" transform="translate(-211.276 -176.314)" fill="#fb6107"/>
    <path id="Path_39764" data-name="Path 39764" d="M330.954,437.939h-1.927v-1.947h1.927Z" transform="translate(-80.148 -55.15)" fill="#fb6107"/>
    <path id="Path_39765" data-name="Path 39765" d="M353.036,438.011v-1.92h1.933v1.92Z" transform="translate(-100.136 -55.232)" fill="#fb6107"/>
    <path id="Path_39766" data-name="Path 39766" d="M377.038,435.978h1.929v1.938h-1.929Z" transform="translate(-120.119 -55.138)" fill="#fb6107"/>
  </g>
</svg>
